<mxfile host="app.diagrams.net" modified="2023-06-19T07:07:21.181Z" agent="Mozilla/5.0 (Windows NT 10.0; Win64; x64) AppleWebKit/537.36 (KHTML, like Gecko) Chrome/114.0.0.0 Safari/537.36" version="21.5.0" etag="pKWOVVIHpNLiCwT8Tthv" type="github">
  <diagram name="Trang-1" id="fRMwjsWaV_YFs80xGPpp">
    <mxGraphModel>
      <root>
        <mxCell id="0" />
        <mxCell id="1" parent="0" />
      </root>
    </mxGraphModel>
  </diagram>
</mxfile>
